<?xml version="1.0" standalone="no"?><!DOCTYPE svg PUBLIC "-//W3C//DTD SVG 1.1//EN" "http://www.w3.org/Graphics/SVG/1.1/DTD/svg11.dtd"><svg t="1536142041590" class="icon" style="" viewBox="0 0 1024 1024" version="1.1" xmlns="http://www.w3.org/2000/svg" p-id="7710" xmlns:xlink="http://www.w3.org/1999/xlink" width="16" height="16"><defs><style type="text/css"></style></defs><path d="M827.903322 927.213611 620.780449 927.213611c-7.742911 0-13.550095-5.807183-13.550095-13.550095L607.230355 654.275992l-176.151229 0 0 259.387524c0 7.742911-5.807183 13.550095-13.550095 13.550095L208.47043 927.213611c-7.742911 0-13.550095-5.807183-13.550095-13.550095L194.920336 516.839319 74.905213 516.839319c-5.807183 0-11.614367-3.871456-13.550095-9.678639-1.935728-5.807183 0-11.614367 3.871456-15.485822L508.508237 83.236295c5.807183-5.807183 13.550095-5.807183 19.357278 0l443.281664 408.438563c3.871456 3.871456 5.807183 9.678639 3.871456 15.485822-1.935728 5.807183-7.742911 9.678639-13.550095 9.678639l-118.079395 0 0 394.888469C843.389145 919.470699 835.646234 927.213611 827.903322 927.213611L827.903322 927.213611zM827.903322 927.213611" p-id="7711" fill="#ffffff"></path></svg>